<?xml version="1.0" encoding="UTF-8"?>
<svg enable-background="new 0 0 90 52" version="1.1" viewBox="0 0 90 52" xml:space="preserve" xmlns="http://www.w3.org/2000/svg">
<style type="text/css">
	.st0{fill-rule:evenodd;clip-rule:evenodd;fill:#24407B;}
	.st1{fill-rule:evenodd;clip-rule:evenodd;fill:#FFFFFF;}
	.st2{fill:#FFFFFF;}
	.st3{display:none;fill:#24407B;}
</style>
	<path class="st0" d="m49.7 2l37.5 21.5c2.6 1.5 2.6 3.9 0 5.4l-37.5 21.5c-2.6 1.5-6.8 1.5-9.4 0l-37.5-21.5c-2.6-1.5-2.6-3.9 0-5.4l37.5-21.5c2.6-1.4 6.8-1.4 9.4 0z"/>
	<path class="st1" d="m49.5 2.7l36.6 20.9c3.1 1.8 3.1 3.4 0 5.2l-36.6 20.9c-2.7 1.6-6.4 1.6-9.1 0l-36.6-20.9c-3-1.7-3-3.5 0-5.2l36.6-20.9c2.6-1.5 6.6-1.6 9.1 0zm-0.2 1.2l34.7 19.9c3.4 1.9 3.5 2.9 0 4.9l-34.7 19.8c-2.6 1.5-6.1 1.5-8.7 0l-34.6-19.9c-3.3-1.8-3.3-3.1 0-4.9l34.6-19.8c2.5-1.4 6.3-1.5 8.7 0z"/>
	<path class="st2" d="m78.2 25.6c-0.3-1.9-1.4-2.8-3.5-2.8-1 0-1.9 0.3-2.6 1s-1.1 1.5-1.1 2.5 0.4 1.8 1 2.5c0.7 0.7 1.5 1 2.5 1 0.8 0 1.6-0.2 2.3-0.5 0.9-0.4 1.4-0.9 1.6-1.5l1 1c-0.4 0.8-1.1 1.4-2 1.8-0.8 0.4-1.8 0.6-2.8 0.6-1.4 0-2.7-0.5-3.7-1.4-1-1-1.5-2.1-1.5-3.5s0.5-2.6 1.5-3.5c1-1 2.3-1.4 3.7-1.4 1.5 0 2.8 0.4 3.6 1 1 0.8 1.6 2.1 1.6 3.8v0.6h-7.4v-1.2h5.8z"/>
	<path class="st2" d="m68.6 25.6v5.6h-1.5v-5.5c0-0.8-0.3-1.5-0.8-2-0.5-0.6-1.2-0.8-2-0.8s-1.5 0.3-2 0.8-0.8 1.2-0.8 2v5.5h-1.5v-9.7h1.6v1c0.5-0.4 1-0.7 1.3-0.8 0.5-0.2 1-0.3 1.5-0.3 1.2 0 2.1 0.4 2.9 1.2 0.9 0.8 1.3 1.8 1.3 3z"/>
	<path class="st2" d="m57.2 19.9c0-0.3 0.1-0.5 0.3-0.6 0.2-0.2 0.4-0.3 0.6-0.3 0.3 0 0.5 0.1 0.7 0.3s0.3 0.4 0.3 0.6c0 0.3-0.1 0.5-0.3 0.7s-0.4 0.3-0.7 0.3-0.5-0.1-0.6-0.3c-0.2-0.2-0.3-0.5-0.3-0.7z"/>
	<polygon class="st2" points="58.9 31.1 57.3 31.1 57.3 21.3 58.9 21.3"/>
	<polygon class="st2" points="39.7 21.5 41.5 21.5 43.6 24.7 45.7 21.5 47.5 21.5 44.4 26.3 44.4 31.1 42.8 31.1 42.8 26.3"/>
	<path class="st2" d="m37.2 31.1v-8.3h-2.1c-1 0-1.8 0.3-2.5 1s-1 1.5-1 2.5 0.3 1.8 1 2.4c0.7 0.7 1.5 1 2.5 1 0.6 0 1.1-0.1 1.6-0.4v1.6c-0.6 0.2-1.2 0.3-1.7 0.3-1.4 0-2.6-0.5-3.6-1.4s-1.5-2.1-1.5-3.5c0-0.8 0.2-1.5 0.5-2.2 0.4-0.8 1-1.5 1.8-1.9 0.8-0.5 1.6-0.7 2.6-0.7h3.8v9.7l-1.4-0.1z"/>
	<path class="st2" d="m26.8 22.8c-0.8 0-1.4 0.3-2 0.8-0.5 0.5-0.8 1.2-0.8 2v5.5h-1.6v-9.7h1.6v1c0.5-0.4 1-0.7 1.3-0.8 0.5-0.2 1-0.3 1.5-0.3 1.3 0 2.4 0.5 3.2 1.5l-1.4 0.7c-0.3-0.4-1-0.7-1.8-0.7z"/>
	<path class="st2" d="m16.3 24.8h5.2v0.4c0 0.6-0.1 1.2-0.2 1.7s-0.3 1-0.5 1.4c-0.5 0.9-1.2 1.7-2 2.2-0.8 0.4-1.8 0.7-2.8 0.7-0.7 0-1.4-0.1-2.1-0.4s-1.3-0.7-1.8-1.2-0.9-1.2-1.2-1.8c-0.3-0.7-0.4-1.4-0.4-2.2s0.1-1.5 0.4-2.2 0.7-1.3 1.2-1.8 1.1-0.9 1.8-1.2 1.4-0.4 2.2-0.4 1.6 0.2 2.3 0.5 1.4 0.8 2.1 1.5l-1 1c-0.5-0.6-1.1-1-1.7-1.2-0.6-0.3-1.1-0.4-1.8-0.4-0.4 0-0.8 0.1-1.2 0.2s-0.7 0.3-1 0.5c-0.6 0.4-1.1 0.9-1.5 1.6-0.3 0.6-0.5 1.4-0.5 2.1 0 0.6 0.1 1.1 0.3 1.6s0.5 1 0.9 1.4 0.8 0.7 1.3 0.9 1 0.3 1.6 0.3c1 0 1.9-0.3 2.7-1 0.7-0.7 1.2-1.6 1.3-2.7h-3.7v-1.5h0.1z"/>
	<path class="st2" d="m50.8 19h1.4v8.6c0 0.7 0.2 1.3 0.6 1.7s0.9 0.6 1.6 0.6h2v1.3h-1.7c-1.3 0-2.3-0.3-2.9-0.9s-1-1.6-1-2.9v-8.4z"/>
	<path class="st3" d="m63.8 46.8c0-0.6 0.5-1.1 1.1-1.1v0.3c-0.5 0-0.8 0.4-0.8 0.8 0 0.5 0.4 0.8 0.8 0.8 0.5 0 0.8-0.4 0.8-0.8 0-0.5-0.4-0.8-0.8-0.8v-0.2c0.6 0 1.1 0.5 1.1 1.1s-0.5 1.1-1.1 1.1c-0.7-0.1-1.1-0.6-1.1-1.2z"/>
	<path class="st3" d="m64.6 46.8v-0.4h0.4c0.2 0 0.2 0.1 0.2 0.2 0 0.2-0.1 0.2-0.3 0.2h-0.3zm-0.2 0.6h0.2v-0.5h0.4c0.2 0 0.2 0.1 0.2 0.2v0.3h0.2c-0.1-0.1-0.1-0.2-0.1-0.3s0-0.2-0.2-0.3c0.2 0 0.2-0.2 0.2-0.3 0-0.2-0.1-0.3-0.4-0.3h-0.6v1.2h0.1z"/>
</svg>
