<?xml version="1.0" standalone="no"?>
<svg version="1.0" xmlns="http://www.w3.org/2000/svg"
 width="539" height="539" viewBox="0 0 5389 5389"
 preserveAspectRatio="xMidYMid meet">

<g transform="translate(0,5389) scale(0.1,-0.1)" stroke="none">

<!-- Frame -->
<path id="logo-frame" fill="#000000" d="M2710 26665 l0 -24365 24360 0 24360 0 0 24365 0 24365 -24360 0
-24360 0 0 -24365z m46150 5 l0 -21790 -21790 0 -21790 0 0 21790 0 21790
21790 0 21790 0 0 -21790z"/>

<!-- Letter V -->
<path id="logo-V" fill="#000000" d="M9842 36761 c2 -5 736 -1753 1633 -3885 l1630 -3876 806 0 806 0
1631 3868 c897 2127 1634 3875 1638 3885 6 16 -50 17 -1092 17 l-1099 0 -635
-1593 c-349 -875 -773 -1938 -942 -2362 l-307 -770 -14 35 c-8 19 -430 1082
-937 2363 l-923 2327 -1099 0 c-639 0 -1098 -4 -1096 -9z"/>

<!-- Letter I -->
<path id="logo-I" fill="#000000" d="M25780 32885 l0 -3885 1015 0 1015 0 0 3885 0 3885 -1015 0 -1015 0
0 -3885z"/>

<!-- Letter R (backwards Я) — RED -->
<path id="logo-R" fill="#DC2626" d="M39145 36763 c-660 -35 -1244 -264 -1638 -641 -371 -356 -596 -819
-679 -1397 -20 -140 -17 -629 5 -780 86 -577 312 -1005 698 -1315 226 -181
526 -329 841 -414 65 -17 118 -33 118 -36 0 -3 -547 -719 -1216 -1590 l-1215
-1585 1253 -3 c993 -2 1255 1 1264 10 6 7 441 679 965 1493 l954 1480 3 -1493
2 -1492 1010 0 1010 0 0 3885 0 3885 -1657 -2 c-912 -1 -1685 -3 -1718 -5z
m1355 -2509 l0 -956 -332 5 c-246 3 -357 8 -423 20 -391 70 -662 250 -785 521
-95 210 -106 527 -25 759 104 301 393 511 795 577 162 27 154 27 478 28 l292
2 0 -956z"/>

<!-- Letter T -->
<path id="logo-T" fill="#000000" d="M11245 25598 c-3 -7 -4 -393 -3 -858 l3 -845 827 -3 828 -2 2 -3028
3 -3027 1010 0 1010 0 3 3027 2 3028 828 2 827 3 0 855 0 855 -2668 3 c-2129
2 -2669 0 -2672 -10z"/>

<!-- Letter U -->
<path id="logo-U" fill="#000000" d="M23410 23233 c0 -1465 4 -2439 10 -2538 63 -1011 332 -1746 820
-2235 499 -500 1195 -765 2180 -831 220 -15 757 -6 970 15 1058 107 1799 489
2243 1158 309 464 486 1079 537 1863 6 103 10 1013 10 2552 l0 2393 -1005 0
-1005 0 0 -2207 c0 -2117 -4 -2468 -31 -2753 -28 -301 -111 -564 -241 -760
-54 -82 -172 -206 -257 -271 -139 -105 -319 -174 -531 -204 -148 -20 -472 -20
-620 0 -578 81 -923 461 -1014 1120 -37 268 -39 375 -43 2748 l-4 2327 -1009
0 -1010 0 0 -2377z"/>

<!-- Letter O (large, in VIRTUO) -->
<path id="logo-O" fill="#000000" d="M39255 25810 c-923 -80 -1716 -384 -2385 -914 -152 -120 -484 -451
-603 -601 -683 -858 -986 -1910 -871 -3025 58 -567 231 -1104 513 -1598 583
-1016 1568 -1713 2765 -1957 360 -73 687 -100 1106 -92 299 6 461 20 720 62
735 120 1436 429 2000 881 149 119 415 379 532 519 650 778 971 1712 945 2745
-11 444 -75 818 -207 1213 -300 900 -909 1659 -1725 2150 -531 321 -1139 523
-1815 603 -156 19 -811 28 -975 14z m663 -1961 c776 -84 1455 -570 1765 -1263
126 -282 177 -531 177 -868 0 -446 -115 -827 -360 -1187 -280 -413 -713 -723
-1207 -865 -444 -127 -959 -110 -1388 46 -136 50 -353 159 -465 234 -368 245
-651 597 -814 1013 -151 382 -177 882 -70 1306 65 257 203 535 383 770 64 84
242 266 330 337 324 261 739 434 1142 477 121 12 394 13 507 0z"/>

<!-- "VIDEO" text below -->
<!-- V in VIDEO -->
<path id="video-V" fill="#000000" d="M21063 11233 c6 -22 896 -2203 906 -2220 5 -9 879 2063 937 2220 6
16 -6 17 -167 17 l-174 0 -86 -213 c-48 -116 -178 -438 -289 -714 -112 -277
-206 -503 -210 -503 -3 0 -134 322 -290 715 l-285 715 -174 0 c-160 0 -173 -1
-168 -17z"/>

<!-- I in VIDEO -->
<path id="video-I" fill="#000000" d="M24000 10205 l0 -1045 160 0 160 0 0 1045 0 1045 -160 0 -160 0 0
-1045z"/>

<!-- D in VIDEO -->
<path id="video-D" fill="#000000" d="M25650 10205 l0 -1047 373 5 c405 5 437 8 602 68 45 17 119 52 164
80 95 59 244 197 307 285 232 325 242 847 23 1188 -120 188 -310 336 -519 405
-148 48 -196 53 -582 58 l-368 5 0 -1047z m772 712 c142 -37 227 -85 324 -182
66 -66 90 -99 128 -176 26 -52 53 -125 61 -164 20 -95 19 -287 -1 -378 -47
-209 -185 -383 -380 -478 -114 -55 -189 -70 -396 -76 l-178 -5 0 747 0 748
173 -6 c140 -4 190 -10 269 -30z"/>

<!-- E in VIDEO -->
<path id="video-E" fill="#000000" d="M28500 10205 l0 -1045 580 0 580 0 0 150 0 150 -420 0 -420 0 0 345
0 345 410 0 410 0 0 150 0 150 -410 0 -410 0 0 250 0 250 420 0 420 0 0 150 0
150 -580 0 -580 0 0 -1045z"/>

<!-- O dot/circle in VIDEO -->
<path id="video-O" fill="#000000" d="M31697 11275 c-236 -45 -419 -146 -597 -332 -89 -92 -144 -167 -192
-263 -141 -283 -142 -653 -2 -949 146 -310 477 -552 823 -602 125 -18 323 -7
444 25 419 108 740 457 807 879 20 120 8 339 -24 454 -51 184 -144 341 -286
483 -144 145 -304 239 -490 287 -121 32 -360 41 -483 18z m428 -315 c130 -41
222 -97 317 -192 161 -161 240 -378 225 -617 -8 -125 -27 -195 -82 -308 -77
-157 -234 -303 -395 -369 -192 -78 -434 -71 -617 17 -211 101 -366 285 -424
505 -27 104 -29 295 -4 404 66 284 298 512 585 575 96 22 304 14 395 -15z"/>

</g>
</svg>
